PathFileType	4	(X/Y/Z)	 s09c0303.trc
DataRate	CameraRate	NumFrames	NumMarkers	Units	OrigDataRate	OrigDataStartFrame	OrigNumFrames
200	200	5	50	mm	200	1501	2000
Frame#	Time	racr			lacr			c7			jug			rlel			rdr			llel			ldr			s2			lic			ric			lasi			rasi			rpsi			lpsi			rgt			lgt			rth1			rth2			rth3			rth4			rlfc			rmfc			rsh1			rsh2			rsh3			rsh4			rlmal			rmmal			rcal			rtoe			rmt5			lth1			lth2			lth4			lth3			llfc			lmfc			llmal			lmmal			lcal			lmt5			lsh1			lsh2			lsh3			lsh4			ltoe			SBIKE			LBIKE			RBIKE			
		X1	Y1	Z1	X2	Y2	Z2	X3	Y3	Z3	X4	Y4	Z4	X5	Y5	Z5	X6	Y6	Z6	X7	Y7	Z7	X8	Y8	Z8	X9	Y9	Z9	X10	Y10	Z10	X11	Y11	Z11	X12	Y12	Z12	X13	Y13	Z13	X14	Y14	Z14	X15	Y15	Z15	X16	Y16	Z16	X17	Y17	Z17	X18	Y18	Z18	X19	Y19	Z19	X20	Y20	Z20	X21	Y21	Z21	X22	Y22	Z22	X23	Y23	Z23	X24	Y24	Z24	X25	Y25	Z25	X26	Y26	Z26	X27	Y27	Z27	X28	Y28	Z28	X29	Y29	Z29	X30	Y30	Z30	X31	Y31	Z31	X32	Y32	Z32	X33	Y33	Z33	X34	Y34	Z34	X35	Y35	Z35	X36	Y36	Z36	X37	Y37	Z37	X38	Y38	Z38	X39	Y39	Z39	X40	Y40	Z40	X41	Y41	Z41	X42	Y42	Z42	X43	Y43	Z43	X44	Y44	Z44	X45	Y45	Z45	X46	Y46	Z46	X47	Y47	Z47	X48	Y48	Z48	X49	Y49	Z49	X50	Y50	Z50	
1501	7.5050	759.009194	1229.362961	-88.252901	774.050938	1178.815023	-462.392193	780.798846	1280.114022	-282.147040	773.348872	1148.481328	-265.532318	574.824564	1060.518063	2.634858	720.594656	881.667879	-56.931065	557.955311	1029.499140	-565.026814	707.850198	878.567043	-450.962918	291.146366	1157.925722	-293.350592	431.684633	1093.785644	-421.756931	424.615446	1161.628965	-131.613987	455.186823	1036.288716	-385.126022	453.754157	1095.688722	-139.914299	322.543149	1193.883580	-238.401824	330.900791	1176.802768	-347.805628	390.155095	1041.709621	-71.256106	355.327402	968.706965	-439.496112	493.564228	943.806500	-70.601161	568.790140	899.515116	-82.648969	607.801704	821.381107	-80.839981	584.802283	914.983335	-111.094438	636.629651	722.136872	-107.218495	610.851952	707.254198	-204.349617	538.842171	695.857285	-75.072623	466.854264	643.597885	-86.204621	379.963196	634.177547	-81.784147	478.087535	619.377200	-115.129685	283.244810	596.135365	-77.821824	292.630959	600.954785	-154.589685	215.982844	642.477583	-113.499482	329.943629	404.836945	-133.239101	281.452159	468.430810	-64.595090	383.242114	840.173421	-430.009454	423.657525	767.102463	-415.153644	458.353663	775.661145	-402.962681	421.110928	677.125336	-402.636342	429.419457	585.116242	-383.461298	421.340875	571.725275	-289.160689	265.455780	258.972378	-410.744523	280.327618	259.809604	-335.868520	188.879438	239.832983	-374.046556	338.192450	145.290858	-432.935793	377.501070	498.714739	-412.999432	363.171372	413.486812	-406.830540	307.175699	344.805925	-410.133290	385.904185	404.521929	-374.840917	432.053362	145.103089	-361.890956	-64.543479	851.107878	-239.809605	20.930114	84.618474	-442.207629	21.117278	84.107301	-43.807807	
1502	7.5100	756.429029	1228.755652	-84.474380	778.180056	1178.785737	-457.653222	780.458836	1280.070054	-277.716421	773.578558	1148.867388	-261.361310	572.268304	1058.274465	3.543878	719.991503	881.611095	-57.066602	562.583437	1032.294708	-565.580435	709.689725	879.016032	-452.335163	291.960187	1157.273140	-297.509104	434.827271	1092.301733	-422.446222	422.837857	1162.184560	-132.985159	457.378919	1035.905319	-385.824419	452.873430	1096.468779	-140.079273	319.773855	1193.889997	-241.234016	332.861258	1175.257731	-351.766106	387.969892	1042.701261	-73.259970	358.098319	967.787605	-440.770339	493.984582	946.768978	-72.062213	571.170720	903.460019	-83.857872	611.347950	827.277211	-81.115029	587.649687	920.384935	-111.816764	643.316255	728.572939	-107.299492	617.119029	713.124196	-207.230456	546.119504	701.943541	-75.860476	474.351177	648.964085	-86.452853	387.768441	638.586169	-82.042934	485.891745	624.526558	-115.076529	290.915309	599.069972	-78.170319	300.045370	604.490824	-154.691085	222.178916	644.719059	-113.330117	341.580521	409.665975	-133.419089	291.428088	472.248189	-64.718918	382.443753	839.455733	-431.465429	420.692491	765.126920	-416.003043	455.286865	772.830542	-403.280225	415.563196	675.309385	-403.797825	421.310235	583.027023	-384.749431	412.363579	570.366986	-290.002140	257.210857	257.464583	-411.646912	272.108799	258.296798	-336.936986	180.736716	239.738837	-375.604880	327.587437	141.771441	-432.799384	369.373466	496.943957	-414.302681	355.098939	411.735553	-407.938105	299.254727	342.963872	-411.368172	377.835567	403.296090	-376.433113	420.901720	139.710349	-359.899732	-64.611520	851.084820	-239.809126	20.919615	84.583324	-442.200665	21.114147	84.102566	-43.789743	
1503	7.5150	753.736473	1228.287522	-80.340056	781.719237	1179.758786	-452.348159	780.136070	1280.069723	-272.947569	773.722895	1149.187652	-257.137168	569.682841	1056.122644	4.550010	719.408619	881.459220	-56.932281	567.036213	1035.159021	-565.816806	710.073709	878.796169	-451.603056	292.893580	1156.071638	-301.840062	437.968581	1091.222330	-423.036315	418.186140	1163.486010	-133.134732	460.038046	1033.996736	-385.063017	452.098445	1097.326956	-140.113545	319.649079	1193.235663	-244.751928	333.609626	1175.782199	-354.270539	385.814472	1043.524303	-75.018654	361.146799	967.255957	-442.229473	494.113183	949.676217	-73.338438	571.690926	908.877532	-84.312581	614.426119	832.971823	-81.403882	588.943460	925.580690	-112.168327	649.727393	735.074955	-107.268815	624.867445	718.344118	-204.148763	552.789717	707.887987	-76.393097	481.684131	653.955967	-86.601666	395.016553	642.737149	-82.342341	493.682492	629.002643	-114.833526	298.459114	601.154868	-78.516334	307.468657	607.233252	-154.727043	228.246145	646.147053	-113.115377	353.264046	413.990772	-133.657008	301.720247	475.296698	-64.863041	381.768499	839.306727	-433.027341	417.842502	763.949877	-417.289050	452.374657	770.719328	-403.753024	410.395767	674.342355	-405.826745	413.436051	581.565286	-386.387613	403.867715	569.335745	-291.310157	249.012234	256.443425	-412.634480	264.281493	257.681108	-337.904375	172.813535	240.278697	-376.545530	316.921533	138.637050	-432.615027	361.486716	495.759939	-415.902071	347.191552	410.618770	-409.547940	291.384360	341.777768	-412.793746	369.620113	401.963991	-377.493267	410.849623	135.707161	-359.812313	-64.662385	851.086451	-239.811853	20.910372	84.572603	-442.191852	21.097855	84.110744	-43.791038	
1504	7.5200	751.112510	1227.548752	-76.119973	785.024155	1181.079972	-447.262738	779.807684	1279.918027	-268.223152	773.883043	1149.309420	-253.117694	567.149291	1053.884821	5.706303	718.447090	881.082186	-56.870960	571.396897	1038.148980	-565.787405	710.679803	878.938668	-451.323765	293.509520	1155.741640	-305.383364	441.056238	1090.568637	-423.542972	415.485543	1164.437845	-134.476712	462.332381	1032.941652	-382.421247	451.205748	1098.393841	-140.126677	319.827949	1192.345911	-248.373786	335.979329	1175.908508	-355.819428	383.659001	1044.406398	-76.619588	364.161162	967.362364	-444.006312	493.873168	952.579486	-74.255129	572.744109	913.197360	-85.335997	618.016553	837.960204	-83.120794	590.088697	930.671132	-112.355377	655.751372	741.461966	-107.003709	631.464099	724.015502	-203.647860	559.173970	713.486494	-76.892656	488.617199	658.789968	-86.610402	402.217357	646.199120	-82.530908	501.119249	633.639322	-114.684453	306.401140	602.538518	-78.653501	314.789914	609.318963	-154.839547	233.959528	646.626843	-113.116967	365.121601	417.820324	-133.830280	312.085086	477.770048	-64.850786	381.133632	839.733543	-434.606768	415.224023	763.367036	-418.788792	449.656112	769.269649	-404.456673	405.472664	673.876616	-408.200334	405.982896	580.854839	-388.463637	396.087109	568.653894	-293.130722	240.682634	256.197315	-413.170215	256.398061	257.626638	-338.843295	164.826833	241.876638	-376.660300	306.254073	136.379076	-432.427228	353.853398	495.379841	-417.777352	339.493666	410.206630	-411.177346	283.455087	341.472800	-414.162704	361.905424	401.563351	-379.120244	402.267375	133.550103	-361.272128	-64.683570	851.070112	-239.826665	20.896955	84.557486	-442.197217	21.086252	84.084120	-43.794998	
1505	7.5250	748.445160	1226.928971	-71.617702	788.232237	1182.453615	-442.122613	779.920459	1280.030795	-262.084240	773.858775	1149.496684	-249.131351	564.615246	1051.630054	6.859270	717.737976	880.908366	-56.863525	575.786382	1041.120451	-565.408614	711.265290	878.947973	-450.802467	294.476608	1156.324720	-309.002401	444.040469	1090.356385	-423.985868	413.821083	1165.115328	-135.886205	464.509404	1032.799683	-381.519804	450.570488	1099.756357	-140.219618	318.895836	1192.377402	-251.254009	337.525661	1176.566123	-358.359655	381.544594	1045.118454	-78.048595	366.570071	968.060572	-445.766256	494.314258	955.218843	-76.430682	573.464866	917.504024	-84.525794	620.193920	843.200592	-83.204945	591.190254	936.127443	-112.556605	661.459167	748.119885	-106.885314	636.986403	730.616277	-205.851869	564.797848	718.741927	-76.936038	495.285327	663.088675	-86.626977	409.129071	649.113449	-82.668324	508.218645	637.991525	-114.558245	313.361418	603.873003	-79.081298	322.116600	610.717619	-155.052308	239.858629	646.316254	-113.076199	377.252906	421.320584	-134.000539	322.540940	479.630588	-64.952911	380.568856	840.683964	-436.266998	412.883912	763.440311	-420.617697	447.153807	768.566600	-405.592541	401.191020	674.039871	-410.961821	398.980952	580.927571	-390.845970	389.175423	568.311197	-295.212608	232.472669	256.637781	-413.452209	248.610272	258.222017	-339.665449	157.121643	244.222986	-377.019867	295.531578	135.126620	-432.245278	346.610076	495.721425	-419.622619	332.043776	410.649548	-412.898824	275.721036	342.014064	-415.298133	354.498767	401.938527	-380.808811	392.101633	130.878424	-361.225622	-64.716908	851.054633	-239.864025	20.886168	84.566362	-442.212107	21.083648	84.071587	-43.793787	
